<svg xmlns="http://www.w3.org/2000/svg" width="192" height="192" viewBox="0 0 192 192">
  <defs>
    <linearGradient id="bgGradient" x1="0%" y1="0%" x2="100%" y2="100%">
      <stop offset="0%" stop-color="#22c55e"/>
      <stop offset="100%" stop-color="#15803d"/>
    </linearGradient>
  </defs>
  <!-- Background -->
  <rect width="192" height="192" fill="url(#bgGradient)" rx="34"/>
  
  <!-- Leaf -->
  <path d="M96 34C96 34 145 53 154 105C163 157 116 169 96 169C76 169 29 157 38 105C47 53 96 34 96 34Z" fill="white" fill-opacity="0.95"/>
  <!-- Leaf vein -->
  <path d="M96 45V150M96 75L73 100M96 96L120 120M96 117L77 136" stroke="#22c55e" stroke-width="4.5" stroke-linecap="round" stroke-opacity="0.5"/>
  
  <!-- Bee Body -->
  <ellipse cx="120" cy="73" rx="23" ry="17" fill="#fbbf24"/>
  <!-- Bee stripes -->
  <path d="M109 64V82" stroke="#1f2937" stroke-width="5" stroke-linecap="round"/>
  <path d="M120 62V84" stroke="#1f2937" stroke-width="5" stroke-linecap="round"/>
  <path d="M131 64V82" stroke="#1f2937" stroke-width="5" stroke-linecap="round"/>
  <!-- Bee head -->
  <circle cx="143" cy="73" r="10" fill="#1f2937"/>
  <!-- Bee eye -->
  <circle cx="146" cy="71" r="2" fill="white"/>
  <!-- Bee wings -->
  <ellipse cx="111" cy="56" rx="13" ry="8" fill="white" fill-opacity="0.8" transform="rotate(-20 111 56)"/>
  <ellipse cx="124" cy="54" rx="11" ry="7" fill="white" fill-opacity="0.7" transform="rotate(10 124 54)"/>
</svg>
